<svg width="24" height="24" viewBox="0 0 24 24" fill="none" xmlns="http://www.w3.org/2000/svg">
<path d="M18.3077 9H10.6923C9.75767 9 9 9.89543 9 11V20C9 21.1046 9.75767 22 10.6923 22H18.3077C19.2423 22 20 21.1046 20 20V11C20 9.89543 19.2423 9 18.3077 9Z" stroke="#999999" stroke-width="2" stroke-linecap="round" stroke-linejoin="round"/>
<path d="M6.53846 17H5.69231C5.24348 17 4.81303 16.7893 4.49567 16.4142C4.1783 16.0391 4 15.5304 4 15V6C4 5.46957 4.1783 4.96086 4.49567 4.58579C4.81303 4.21071 5.24348 4 5.69231 4H13.3077C13.7565 4 14.187 4.21071 14.5043 4.58579C14.8217 4.96086 15 5.46957 15 6V7" stroke="#999999" stroke-width="2" stroke-linecap="round" stroke-linejoin="round"/>
</svg>
