<svg width="18" height="19" viewBox="0 0 18 19" fill="none" xmlns="http://www.w3.org/2000/svg">
<path d="M9 17C13.1421 17 16.5 13.6421 16.5 9.5C16.5 5.35786 13.1421 2 9 2C4.85786 2 1.5 5.35786 1.5 9.5C1.5 13.6421 4.85786 17 9 17Z" stroke="#999999" stroke-opacity="0.7" stroke-width="1.5" stroke-linecap="round" stroke-linejoin="round"/>
<path d="M6.81836 7.25C6.99469 6.74875 7.34272 6.32608 7.80083 6.05685C8.25893 5.78762 8.79753 5.6892 9.32124 5.77903C9.84495 5.86886 10.32 6.14114 10.6622 6.54765C11.0044 6.95415 11.1917 7.46864 11.1909 8C11.1909 9.5 8.94086 10.25 8.94086 10.25" stroke="#0FB95D" stroke-width="2" stroke-linecap="round" stroke-linejoin="round"/>
<path d="M9 13.25H9.00667" stroke="#0FB95D" stroke-width="2" stroke-linecap="round" stroke-linejoin="round"/>
</svg>
