<svg width="19" height="18" viewBox="0 0 19 18" fill="none" xmlns="http://www.w3.org/2000/svg">
<path fill-rule="evenodd" clip-rule="evenodd" d="M15.838 15.338H13.17V11.16C13.17 10.165 13.153 8.883 11.783 8.883C10.393 8.883 10.182 9.969 10.182 11.09V15.338H7.514V6.748H10.073V7.922H10.11C10.466 7.247 11.337 6.535 12.636 6.535C15.339 6.535 15.839 8.313 15.839 10.627V15.338H15.838ZM4.505 5.575C4.30171 5.5752 4.10038 5.53535 3.91249 5.45774C3.7246 5.38013 3.55384 5.26627 3.40996 5.12266C3.26607 4.97906 3.15188 4.80852 3.07391 4.62078C2.99593 4.43304 2.9557 4.23179 2.9555 4.0285C2.9553 3.82521 2.99515 3.62388 3.07276 3.43599C3.15037 3.2481 3.26423 3.07734 3.40784 2.93346C3.55144 2.78957 3.72198 2.67538 3.90972 2.59741C4.09746 2.51943 4.29871 2.4792 4.502 2.479C4.91255 2.4786 5.30645 2.64131 5.59704 2.93134C5.88763 3.22136 6.0511 3.61494 6.0515 4.0255C6.0519 4.43606 5.88919 4.82995 5.59916 5.12054C5.30914 5.41113 4.91556 5.5746 4.505 5.575ZM3.168 15.338H5.84V6.748H3.167V15.338H3.168ZM17.168 0H1.828C1.095 0 0.5 0.581 0.5 1.298V16.701C0.5 17.418 1.095 18 1.828 18H17.168C17.902 18 18.5 17.418 18.5 16.701V1.298C18.5 0.581 17.902 0 17.168 0Z" fill="#9CA3AF"/>
</svg>
