<svg width="123" height="25" viewBox="0 0 123 25" fill="none" xmlns="http://www.w3.org/2000/svg">
<path d="M9.52752 2.23087C11.0532 2.23087 12.3987 2.58456 13.5638 3.29195C14.7427 3.99933 15.6512 4.97718 16.2893 6.2255C16.9273 7.47383 17.2463 8.88859 17.2463 10.4698C17.2463 12.0926 16.7609 13.5906 15.7899 14.9638C14.819 16.3369 13.6123 17.4257 12.1698 18.2302C10.7273 19.0208 9.35414 19.4161 8.05034 19.4161C6.53848 19.4161 5.2 19.0694 4.0349 18.3758C2.8698 17.6685 1.9613 16.6906 1.3094 15.4423C0.671365 14.194 0.352349 12.7792 0.352349 11.198C0.352349 9.57517 0.837808 8.07718 1.80872 6.70403C2.77964 5.317 3.97942 4.22819 5.40805 3.43758C6.85056 2.63311 8.22371 2.23087 9.52752 2.23087ZM8.32081 4.22819C7.46085 4.22819 6.67718 4.48479 5.9698 4.99799C5.26242 5.51119 4.70067 6.2255 4.28456 7.14094C3.88233 8.05638 3.68121 9.07584 3.68121 10.1993C3.68121 11.517 3.88233 12.7237 4.28456 13.8195C4.70067 14.9013 5.32483 15.7682 6.15705 16.4201C6.98926 17.072 8.0226 17.398 9.25705 17.398C10.117 17.398 10.9007 17.1414 11.6081 16.6282C12.3293 16.115 12.8911 15.4076 13.2933 14.506C13.7094 13.5906 13.9174 12.5711 13.9174 11.4477C13.9174 10.1161 13.7094 8.9094 13.2933 7.82752C12.8911 6.73177 12.2669 5.85794 11.4208 5.20604C10.5886 4.55414 9.55526 4.22819 8.32081 4.22819ZM26.263 19.2081C25.5834 19.2081 24.9661 19.0139 24.4113 18.6255V22.3913L27.4281 23.2443L26.908 24.2846H19.6469V23.4315L21.4986 21.9544V11.2396L19.6469 10.1161V9.26309L23.5167 7.49463L24.2449 10.0745L27.0744 7.84832C27.5183 7.73736 28.0245 7.68188 28.5932 7.68188C29.3838 7.68188 30.0912 7.92461 30.7153 8.41007C31.3534 8.88166 31.8527 9.52662 32.2133 10.345C32.574 11.1633 32.7543 12.0718 32.7543 13.0705C32.7543 14.1523 32.4145 15.1649 31.7348 16.1081C31.069 17.0512 30.2299 17.8072 29.2174 18.3758C28.2048 18.9306 27.227 19.2081 26.2838 19.2081H26.263ZM27.4281 10.0121C26.9149 10.0121 26.4225 10.1022 25.9509 10.2826C25.4932 10.449 24.9731 10.768 24.3905 11.2396V14.6725C24.3905 15.3937 24.654 15.9971 25.1811 16.4826C25.7221 16.9541 26.4849 17.1899 27.4697 17.1899C28.8983 17.1899 29.6127 16.1497 29.6127 14.0691C29.6127 12.9179 29.4254 11.9539 29.0509 11.1772C28.6764 10.4004 28.1355 10.0121 27.4281 10.0121ZM42.7849 18.9792C42.1469 19.1318 41.3632 19.2081 40.4339 19.2081C39.4768 19.2081 38.6169 18.9723 37.854 18.5007C37.105 18.0152 36.5155 17.3633 36.0856 16.545C35.6556 15.7128 35.4406 14.7973 35.4406 13.7987C35.4406 12.7168 35.7735 11.7112 36.4393 10.7819C37.1189 9.8387 37.965 9.08971 38.9775 8.5349C39.99 7.96622 40.9679 7.68188 41.9111 7.68188C43.2842 7.68188 44.3522 8.21588 45.1151 9.28389C45.878 10.3519 46.2525 11.7875 46.2386 13.5906H38.603C38.714 14.6447 39.0261 15.4978 39.5393 16.1497C40.0663 16.8016 40.7737 17.1275 41.6614 17.1275C42.5907 17.1275 43.9223 16.5103 45.656 15.2758L46.2594 16.2329L42.7849 18.9792ZM40.7252 9.67919C39.352 9.67919 38.6308 10.6293 38.5614 12.5295H43.0762C42.9652 11.8499 42.8404 11.3228 42.7017 10.9483C42.5768 10.56 42.3549 10.2548 42.0359 10.0329C41.7308 9.79709 41.2938 9.67919 40.7252 9.67919ZM61.8715 19H57.6064V12.1342C57.6064 11.3991 57.4955 10.8928 57.2736 10.6154C57.0516 10.3242 56.6633 10.1785 56.1085 10.1785C55.6924 10.1785 55.2762 10.2479 54.8601 10.3866C54.444 10.5253 53.9724 10.7888 53.4454 11.1772V17.2732L55.3179 17.9597L54.7977 19H48.6809V18.147L50.5326 16.649V11.2396L48.6809 10.1161V9.26309L52.5507 7.49463L53.2789 10.0745L56.0877 7.84832C56.3789 7.73736 56.7812 7.68188 57.2944 7.68188C58.2792 7.68188 59.0628 7.97315 59.6454 8.5557C60.2279 9.12438 60.5192 9.90112 60.5192 10.8859V17.2732L62.3917 17.9597L61.8715 19Z" fill="black"/>
<path d="M76.7581 19H63.942V18.147L65.8977 16.6074V4.35302L63.6923 3.68725L64.2125 2.64698H70.9534V3.5L68.9769 5.0396V17.7933H74.0742L77.195 13.2369L78.0272 13.549V19.3745L76.7581 19ZM91.5728 19H87.3077V17.1899L84.9567 19.0416C84.6793 19.1526 84.3326 19.2081 83.9165 19.2081C82.6681 19.2081 81.7596 18.9029 81.191 18.2926C80.6361 17.6685 80.3587 16.9195 80.3587 16.0456C80.3587 15.5324 80.5321 15.0331 80.8789 14.5477C81.2395 14.0483 81.7458 13.5767 82.3977 13.1329H87.3077V12.1758C87.3077 10.5946 86.4617 9.80403 84.7695 9.80403C83.8818 9.80403 82.7444 10.2687 81.3574 11.198L80.7332 10.2617L83.6876 7.91074C84.2702 7.75817 84.9983 7.68188 85.8722 7.68188C87.2453 7.68188 88.3133 8.00783 89.0762 8.65973C89.8391 9.31163 90.2205 10.2617 90.2205 11.5101V17.2315L92.093 17.9597L91.5728 19ZM84.7279 17.0235C85.5046 17.0235 86.3646 16.6698 87.3077 15.9624V14.194H83.75C83.4726 14.5268 83.3339 14.9291 83.3339 15.4007C83.3339 15.8584 83.4587 16.2468 83.7084 16.5658C83.9719 16.8709 84.3118 17.0235 84.7279 17.0235ZM106.733 19H102.468V12.1342C102.468 11.3991 102.357 10.8928 102.135 10.6154C101.913 10.3242 101.525 10.1785 100.97 10.1785C100.554 10.1785 100.138 10.2479 99.7217 10.3866C99.3056 10.5253 98.834 10.7888 98.3069 11.1772V17.2732L100.179 17.9597L99.6593 19H93.5425V18.147L95.3942 16.649V11.2396L93.5425 10.1161V9.26309L97.4123 7.49463L98.1405 10.0745L100.949 7.84832C101.241 7.73736 101.643 7.68188 102.156 7.68188C103.141 7.68188 103.924 7.97315 104.507 8.5557C105.089 9.12438 105.381 9.90112 105.381 10.8859V17.2732L107.253 17.9597L106.733 19ZM121.538 19H117.273V17.4812L115.317 19.0416C114.873 19.1526 114.346 19.2081 113.736 19.2081C112.82 19.2081 111.995 18.9723 111.26 18.5007C110.539 18.0152 109.97 17.3633 109.554 16.545C109.152 15.7128 108.951 14.7973 108.951 13.7987C108.951 12.7168 109.284 11.7112 109.949 10.7819C110.629 9.8387 111.475 9.08971 112.488 8.5349C113.5 7.96622 114.478 7.68188 115.421 7.68188C116.087 7.68188 116.704 7.86913 117.273 8.24362V4.41544L115.421 3.14631V2.29329L119.187 0.836913H120.186V17.2732L122.058 17.9597L121.538 19ZM114.88 17.0027C115.296 17.0027 115.692 16.9541 116.066 16.857C116.441 16.7461 116.843 16.5519 117.273 16.2745V11.8221C117.19 11.198 116.884 10.6848 116.357 10.2826C115.844 9.88031 115.13 9.67919 114.214 9.67919C112.786 9.67919 112.071 10.7264 112.071 12.8208C112.071 14.0136 112.314 15.0123 112.8 15.8168C113.285 16.6213 113.979 17.0235 114.88 17.0235V17.0027Z" fill="#0FB95D"/>
</svg>
