<svg width="511" height="108" viewBox="0 0 511 108" fill="none" xmlns="http://www.w3.org/2000/svg">
<path d="M186.611 57.4183C184.605 57.3795 182.63 57.9158 180.919 58.9638C179.289 59.9769 177.936 61.3787 176.982 63.0434C175.982 64.8018 175.372 66.7541 175.191 68.7686C174.979 70.9873 175.242 73.2257 175.962 75.3351C176.273 76.2662 176.639 77.1783 177.056 78.0668C177.517 79.0599 178.106 79.9886 178.808 80.8293C179.528 81.6951 180.403 82.4204 181.387 82.9688C182.476 83.567 183.704 83.8692 184.946 83.8451C186.951 83.8674 188.915 83.2833 190.581 82.1695C192.212 81.1006 193.562 79.6561 194.518 77.9573C195.515 76.1534 196.113 74.1561 196.27 72.1011C196.46 69.8546 196.187 67.5928 195.468 65.4559C195.164 64.5272 194.81 63.6154 194.409 62.7242C193.985 61.7787 193.421 60.9023 192.736 60.1243C192.03 59.324 191.177 58.6658 190.223 58.1851C189.106 57.6456 187.878 57.3787 186.638 57.4063L186.611 57.4183ZM186.395 45.836C188.341 45.861 190.28 46.0823 192.182 46.4967C194.354 46.9497 196.453 47.7026 198.417 48.7337C200.488 49.8134 202.369 51.2237 203.986 52.9091C205.719 54.7299 207.008 56.9265 207.752 59.3275C208.211 60.7938 208.521 62.3029 208.675 63.8316C208.86 65.5911 208.889 67.3635 208.761 69.1281C209.328 69.6223 209.985 70.003 210.696 70.2492C211.349 70.4659 212.031 70.5769 212.719 70.5778C213.744 70.5608 214.749 70.29 215.644 69.7896C216.701 69.2142 217.689 68.5212 218.591 67.7237C219.586 66.8519 220.512 65.9049 221.362 64.891C222.238 63.841 223.07 62.7858 223.819 61.7349C224.568 60.684 225.237 59.681 225.819 58.7396C226.401 57.7983 226.879 56.9887 227.255 56.3365C227.375 56.1847 227.53 56.065 227.708 55.9885C227.885 55.912 228.079 55.881 228.271 55.8984C229.038 55.9578 229.757 56.2974 230.289 56.8526C231.058 57.5815 231.62 58.5019 231.916 59.5192C232.294 60.7963 232.372 62.1437 232.143 63.4559C231.791 65.2065 230.957 66.8241 229.736 68.1268C229.012 69.2678 228.188 70.5801 227.262 72.0634C226.334 73.5528 225.283 74.9615 224.119 76.2748C222.98 77.5661 221.669 78.6944 220.222 79.6278C218.81 80.5446 217.159 81.0255 215.476 81.0107C214.249 81.0047 213.029 80.8279 211.851 80.4853C210.476 80.0695 209.155 79.4951 207.914 78.7737C207.107 81.1652 205.955 83.4261 204.494 85.4848C203.041 87.5151 201.242 89.274 199.179 90.6812C196.959 92.1864 194.516 93.3324 191.939 94.0769C188.966 94.9255 185.885 95.3369 182.794 95.2982C181.21 95.2512 179.637 95.0071 178.114 94.5716C176.142 94.0369 174.255 93.2304 172.505 92.1754C170.533 90.9894 168.75 89.5139 167.217 87.798C165.523 85.8995 164.254 83.661 163.495 81.2324C162.866 79.1778 162.472 77.0584 162.322 74.9149C162.118 72.3812 162.193 69.8329 162.545 67.3155C162.917 64.6546 163.604 62.0475 164.593 59.5492C165.598 56.9955 167.072 54.6527 168.94 52.6421C170.951 50.5155 173.385 48.8347 176.086 47.7085C179.357 46.3834 182.866 45.746 186.395 45.836Z" fill="#898989" fill-opacity="0.93"/>
<path d="M83.9173 88.831C83.5846 85.1192 83.224 80.8234 82.8354 75.9437C82.4468 71.0639 82.0602 65.9577 81.6756 60.625C81.2836 55.2928 80.8998 49.9299 80.5244 44.5361C80.1489 39.1423 79.8262 34.0932 79.5563 29.3886C78.1269 33.7925 76.6778 38.2166 75.209 42.6611C73.7402 47.1055 72.3539 51.3274 71.05 55.3268C69.7336 59.3205 68.5151 62.9348 67.3944 66.1696C66.2737 69.4045 65.3675 72.0164 64.6759 74.0053C63.9455 75.3415 63.1997 76.6137 62.4385 77.8221C61.7484 78.9407 60.9692 80.0019 60.1087 80.9954C59.3973 81.839 58.5686 82.5762 57.6479 83.1845C56.8701 83.705 55.9569 83.9864 55.021 83.9941C53.9577 84.0326 52.9059 83.7634 51.9919 83.2187C51.5871 82.9599 51.242 82.6181 50.9794 82.216C50.7167 81.8138 50.5425 81.3604 50.4683 80.8858C50.4289 80.671 50.3981 80.4477 50.3827 80.2731C50.37 80.0664 50.3847 79.8589 50.4264 79.6561C48.9673 73.5269 47.5724 67.3444 46.2417 61.1085C44.911 54.8726 43.6531 48.7341 42.4679 42.6927L41.636 38.4206C41.3595 36.994 41.1104 35.5965 40.8827 34.2093C39.9127 38.0963 38.8197 42.1322 37.6037 46.317C36.3877 50.5018 35.0752 54.6341 33.6664 58.714C32.2564 62.7995 30.7534 66.7276 29.1573 70.4983C27.6843 74.0185 26.0167 77.4541 24.1621 80.7891C22.6289 83.579 20.8345 86.2173 18.8031 88.6684C17.2873 90.5864 15.3654 92.1448 13.1754 93.2315C11.7483 93.8798 10.2709 94.4112 8.75789 94.8207C7.6265 95.1247 6.4619 95.288 5.29051 95.3068C4.00662 95.3811 2.73165 95.0519 1.64424 94.3654C0.8341 93.8386 0.265663 93.0124 0.0633359 92.0676C-0.127929 90.8968 0.123484 89.6966 0.768622 88.7009C1.54038 87.4599 2.69668 86.5052 4.06139 85.9821C5.89765 85.2033 7.73334 83.4874 9.56846 80.8345C11.6398 77.7659 13.4485 74.5281 14.9754 71.1555C16.7266 67.3621 18.4299 63.1307 20.0853 58.4615C21.7407 53.7923 23.2933 49.0661 24.7433 44.2828C26.2035 39.4938 27.5479 34.8012 28.7764 30.205C30.005 25.6089 31.0746 21.4546 31.9853 17.7421C32.904 14.0303 33.651 10.9326 34.2262 8.4491C34.8013 5.96559 35.1605 4.42345 35.3038 3.82269C35.5491 2.63104 36.2535 1.58374 37.2647 0.907021C38.1985 0.312073 39.2833 -0.00248833 40.3906 0.000720247C41.0302 -0.0424142 41.6719 0.0478404 42.2748 0.265726C42.8777 0.483612 43.4288 0.824377 43.893 1.26644C44.6856 2.09313 45.2548 3.60788 45.6751 5.76619C46.551 8.48646 47.339 11.0427 48.0392 13.4349C48.7393 15.8272 49.4224 18.2873 50.0883 20.8153C50.7473 23.3393 51.3939 26.0593 52.0278 28.9752C52.6618 31.8912 53.3465 35.2471 54.0821 39.0428C54.6127 41.7653 55.1426 44.7654 55.6715 48.0431C56.2005 51.3208 56.8587 54.9893 57.6462 59.0486C60.9997 49.6429 63.9741 41.3463 66.5693 34.1588C69.1644 26.9713 71.4703 20.9522 73.4869 16.1016C74.9743 12.2957 76.7579 8.6122 78.8211 5.08498C80.3703 2.60376 81.7478 1.36344 82.9535 1.36401H83.3917C83.5193 1.36454 83.6468 1.35423 83.7726 1.33319C83.8998 1.31068 84.0286 1.29895 84.1578 1.29812C85.1912 1.29812 86.1367 1.94595 86.9944 3.24162C87.943 4.78692 88.5826 6.50171 88.8774 8.29078C89.1136 10.4091 89.3661 13.0356 89.6349 16.1701C89.9037 19.3045 90.1764 22.7671 90.4532 26.5576C90.7453 30.3368 91.0372 34.3188 91.3288 38.5036C91.6204 42.6884 91.9123 46.8428 92.2044 50.9665C92.496 55.0903 92.7879 59.0942 93.08 62.9784C93.3722 66.8625 93.6772 70.379 93.995 73.5278C94.0194 74.1041 94.0881 74.6777 94.2004 75.2436L94.5428 77.0262C94.7608 78.1462 95.0027 79.2784 95.2687 80.4229C95.5323 81.5696 95.7728 82.6984 95.9911 83.8238C96.245 85.1194 96.4347 86.4316 96.5602 87.7604C96.6993 88.96 96.571 90.1755 96.1845 91.3196C95.7684 92.4233 94.9699 93.3411 93.9342 93.9058C92.3876 94.6686 90.6691 95.0157 88.9476 94.9131C88.3777 94.9168 87.8132 94.802 87.2901 94.5758C86.767 94.3497 86.2967 94.0172 85.909 93.5995C85.028 92.7083 84.3641 91.1188 83.9173 88.831Z" fill="#898989" fill-opacity="0.93"/>
<path d="M223.578 53.9346C223.715 52.3741 224.382 50.9076 225.47 49.7798C226.353 48.91 227.54 48.4188 228.779 48.4105C229.897 48.4495 230.972 48.8487 231.844 49.5487C232.933 50.3887 233.715 51.5641 234.069 52.8931C234.246 53.4861 234.368 54.0944 234.432 54.71C234.504 55.4025 234.484 56.1016 234.371 56.7887C235.077 55.3781 236.041 54.112 237.212 53.0557C238.623 51.7238 240.19 50.5683 241.879 49.6146C243.684 48.5834 245.591 47.7441 247.571 47.1105C249.505 46.4752 251.526 46.1472 253.562 46.1384C255.709 46.1152 257.82 46.6882 259.661 47.7935C261.638 49.1004 263.045 51.109 263.598 53.4134C264.076 54.9953 264.343 56.6336 264.39 58.2855C264.438 59.9781 264.352 61.6718 264.134 63.3509C263.914 65.024 263.597 66.6828 263.184 68.3188C262.778 69.9448 262.35 71.4712 261.9 72.8981C261.45 74.325 261.039 75.6372 260.669 76.8347C260.293 78.0251 260.017 79.023 259.833 79.789C259.494 80.5488 259.464 81.4101 259.747 82.192C259.858 82.5458 260.065 82.8616 260.346 83.1034C260.66 83.3714 261.064 83.5106 261.476 83.4928C261.805 83.4887 262.133 83.4552 262.456 83.3927C262.906 83.2809 263.315 83.0458 263.638 82.714C265.724 81.803 267.729 80.715 269.63 79.462C271.57 78.1933 273.438 76.8168 275.225 75.3388C276.877 73.971 278.448 72.5094 279.933 70.9614C281.141 69.7216 282.27 68.4068 283.313 67.0248C283.529 66.7458 283.808 66.5222 284.127 66.3727C284.403 66.2505 284.701 66.185 285.003 66.1802C285.365 66.1839 285.723 66.2607 286.054 66.406C286.386 66.5513 286.685 66.762 286.933 67.0257C287.525 67.6218 287.958 68.3577 288.19 69.1651C288.603 70.6254 288.65 72.1651 288.326 73.6478C287.954 75.3895 287.095 76.9896 285.848 78.2613C283.989 80.0334 282.283 81.656 280.73 83.1291C279.187 84.5966 277.562 85.9747 275.862 87.2565C274.085 88.5873 272.21 89.7817 270.254 90.8295C267.867 92.0757 265.375 93.1084 262.807 93.9155C261.905 94.2361 260.982 94.4963 260.045 94.6943C259.25 94.8599 258.44 94.9459 257.628 94.951C255.625 95.0313 253.666 94.3459 252.15 93.034C250.617 91.5736 249.516 89.72 248.967 87.6759C248.874 87.3738 248.795 87.0769 248.73 86.8004C248.665 86.524 248.599 86.2014 248.538 85.859C248.205 84.412 248.101 82.9216 248.231 81.4423C248.36 79.783 248.596 78.1337 248.936 76.5044C249.283 74.8151 249.688 73.1371 250.149 71.4706C250.61 69.8041 251.021 68.224 251.383 66.7304C251.751 65.2379 252.027 63.9063 252.219 62.7339C252.416 61.7904 252.399 60.8146 252.167 59.879C251.977 59.2415 251.617 58.668 251.124 58.2204C250.629 57.7652 249.976 57.5198 249.304 57.5358C246.771 57.4779 244.306 58.3572 242.382 60.0048C240.396 61.7288 238.725 63.7847 237.443 66.0809C236.058 68.5156 234.893 71.0692 233.962 73.7111C233.01 76.396 232.183 78.7991 231.48 80.9203C231.063 82.4217 230.76 83.9525 230.573 85.4996C230.391 87.029 230.127 88.5474 229.781 90.0482C229.518 91.301 229.012 92.4904 228.292 93.5492C227.927 94.0267 227.448 94.4049 226.899 94.6489C226.35 94.893 225.748 94.9951 225.149 94.9459C223.715 94.9607 222.325 94.4516 221.24 93.5141C220.131 92.6046 219.318 91.3854 218.905 90.0122C218.647 88.8403 218.578 87.6347 218.7 86.441C218.788 84.795 218.963 82.8895 219.226 80.7243C219.488 78.5574 219.825 76.2331 220.224 73.7197C220.622 71.2062 221.025 68.7646 221.436 66.3179C221.848 63.8712 222.251 61.564 222.645 59.4023C223.039 57.2405 223.37 55.4665 223.578 53.9346Z" fill="#898989" fill-opacity="0.93"/>
<path d="M336.939 37.1772C336.634 36.1857 336.496 35.1503 336.531 34.1135C336.552 33.1078 336.801 32.1199 337.259 31.2243C337.729 30.3403 338.431 29.6008 339.29 29.0849C340.377 28.4745 341.613 28.1818 342.858 28.2402C345.298 28.2402 347.153 28.7251 348.422 29.695C349.647 30.6148 350.546 31.9012 350.99 33.3672C351.251 34.2521 351.372 35.1724 351.348 36.0947C351.349 37.0456 351.152 37.9863 350.77 38.8572C350.379 39.7202 349.748 40.4525 348.952 40.9667C347.946 41.5751 346.782 41.8695 345.607 41.8122C342.983 41.8122 341.021 41.3889 339.724 40.5422C338.456 39.7513 337.479 38.5706 336.939 37.1772ZM334.448 51.7933C334.678 50.7552 335.271 49.8334 336.12 49.1934C336.895 48.6704 337.812 48.3985 338.747 48.4146C340.419 48.4383 342.038 48.9967 343.369 50.0081C344.792 50.9856 345.841 52.4161 346.346 54.0663C346.425 54.4565 346.491 54.8459 346.548 55.2353C346.601 55.6251 346.582 56.0214 346.492 56.4043C346.246 57.5331 346.054 58.483 345.913 59.2626C345.772 60.0423 345.647 60.768 345.532 61.4517C345.417 62.1355 345.317 62.7654 345.221 63.4346C345.124 64.1038 345.007 64.8621 344.861 65.7718C344.686 66.8558 344.478 68.0362 344.236 69.313C343.995 70.5865 343.798 71.9001 343.637 73.2497C343.481 74.5562 343.399 75.8705 343.392 77.1863C343.376 78.3948 343.541 79.5989 343.882 80.7584C344.077 81.7038 344.637 82.5341 345.441 83.069C346.248 83.4653 347.142 83.655 348.041 83.621C349.237 83.6177 350.418 83.3516 351.501 82.8414C352.665 82.2996 353.762 81.6241 354.77 80.8286C355.852 79.9813 356.853 79.036 357.761 78.0045C358.679 76.9761 359.544 75.9021 360.353 74.7867C361.139 73.7027 361.852 72.6637 362.493 71.6699C363.059 70.8105 363.579 69.9221 364.052 69.0084C364.278 68.6392 364.594 68.3327 364.97 68.1171C365.345 67.9015 365.769 67.7836 366.202 67.7743C366.618 67.7909 367.026 67.8913 367.402 68.0695C367.778 68.2478 368.115 68.5002 368.391 68.8115C369.119 69.5574 369.649 70.474 369.931 71.4774C370.237 72.5089 370.321 73.5937 370.177 74.66C370.016 75.83 369.532 76.932 368.78 77.8427C367.32 80.0929 365.787 82.2466 364.183 84.3039C362.641 86.2944 360.901 88.1232 358.99 89.7622C357.212 91.2919 355.232 92.5691 353.105 93.5576C351.004 94.5206 348.717 95.011 346.405 94.9945C343.233 95.069 340.121 94.1238 337.527 92.2979C335.016 90.5036 333.18 87.7009 332.019 83.8897C331.427 81.9943 331.103 80.0254 331.057 78.0404C331.019 76.1864 331.107 74.3319 331.319 72.4897C331.529 70.692 331.801 68.9599 332.133 67.2934C332.454 65.7156 332.685 64.121 332.825 62.5172C332.864 61.9567 332.965 61.0906 333.136 59.9216C333.306 58.7526 333.499 57.5579 333.722 56.3444C333.938 54.9146 334.18 53.3985 334.449 51.7959" fill="#898989" fill-opacity="0.93"/>
<path d="M419.406 78.8112C417.169 81.1529 414.568 83.1161 411.702 84.6246C408.638 86.1082 405.262 86.8332 401.859 86.7384C400.533 86.7264 399.219 86.4834 397.977 86.0204C396.125 85.303 394.326 84.4576 392.591 83.4906C391.32 86.7322 389.356 89.6572 386.838 92.0614C384.675 93.9965 381.859 95.0412 378.957 94.9856C377.427 94.9755 375.91 94.6998 374.474 94.1709C372.919 93.6082 371.472 92.7852 370.194 91.7371C368.784 90.58 367.551 89.2232 366.534 87.7097C365.376 85.9941 364.49 84.1099 363.907 82.1239C363.084 79.3785 362.509 76.5644 362.191 73.7158C361.841 70.7046 361.63 67.7703 361.556 64.9131C361.482 62.0559 361.466 59.415 361.508 56.9902C361.545 54.5649 361.577 52.6374 361.604 51.2076C361.74 49.6889 362.453 48.2801 363.596 47.271C364.558 46.497 365.755 46.0725 366.989 46.0669C367.585 46.0759 368.175 46.1749 368.741 46.3604C369.371 46.5549 369.975 46.8268 370.538 47.17C371.097 47.5108 371.606 47.9262 372.052 48.4049C372.471 48.8498 372.785 49.3821 372.972 49.9633C373.109 50.3595 373.151 50.7821 373.095 51.1974C373.095 53.2792 373.038 55.5425 372.924 57.9872C372.809 60.4319 372.75 62.8889 372.744 65.3582C372.744 67.8274 372.837 70.241 373.025 72.599C373.189 74.7899 373.587 76.9571 374.211 79.0636C374.345 79.4743 374.509 79.8748 374.701 80.2618C374.938 80.7616 375.192 81.2382 375.455 81.6935C375.7 82.1159 375.994 82.5082 376.33 82.8625C376.536 83.1301 376.84 83.305 377.175 83.3486C377.802 83.2994 378.408 83.1033 378.945 82.7762C379.482 82.4491 379.935 82.0002 380.266 81.4659C381.424 79.8591 382.376 78.1133 383.099 76.2695C384.098 74.5902 384.876 72.7893 385.415 70.9114C386.028 68.854 386.562 66.7431 387.017 64.5785C387.473 62.4139 387.896 60.2807 388.287 58.1789C388.675 56.0834 389.113 54.2006 389.6 52.5307C389.976 51.1138 390.552 49.7577 391.312 48.5033C391.557 48.0506 391.918 47.671 392.358 47.4034C392.798 47.1357 393.301 46.9897 393.816 46.98C394.597 46.9504 395.375 47.0886 396.098 47.3854C396.82 47.6821 397.471 48.1305 398.006 48.7002C399.09 49.8776 399.888 51.2883 400.34 52.8234C400.868 54.4362 401.096 56.1321 401.014 57.8272C400.891 59.4229 400.598 61.0009 400.139 62.534C399.661 64.16 399.065 65.9572 398.341 67.9255C397.617 69.8939 396.886 72.2464 396.153 74.973C396.628 75.4265 397.19 75.7812 397.803 76.0162C398.417 76.2513 399.072 76.3621 399.729 76.3422C401.257 76.3395 402.778 76.1422 404.256 75.7552C405.756 75.3661 407.208 74.8109 408.585 74.1001C409.992 73.3657 411.324 72.4948 412.561 71.5001C413.833 70.4804 415.023 69.3622 416.12 68.1557C416.569 67.7884 417.128 67.5817 417.708 67.5686C418.125 67.5862 418.534 67.6875 418.91 67.8666C419.287 68.0457 419.623 68.2989 419.9 68.611C420.624 69.3571 421.151 70.2718 421.433 71.2725C421.795 72.5073 421.848 73.8125 421.584 75.0722C421.286 76.5228 420.52 77.8359 419.406 78.8112Z" fill="#898989" fill-opacity="0.93"/>
<path d="M434.112 55.0416C433.919 55.0011 433.724 54.979 433.527 54.9758H432.956C431.5 54.9417 430.059 55.2761 428.766 55.9479C427.589 56.5877 426.555 57.4614 425.728 58.5153C424.877 59.6032 424.204 60.8193 423.734 62.1182C423.251 63.4254 422.845 64.7599 422.519 66.1147C422.22 67.3655 422.006 68.6349 421.879 69.9144C421.768 71.1262 421.711 72.1478 421.707 72.979C423.008 72.1562 424.267 71.2679 425.478 70.3175C426.753 69.3197 427.947 68.3666 429.06 67.4583C430.173 66.55 431.133 65.727 431.942 64.9894C432.747 64.2539 433.322 63.7565 433.664 63.4969C434.906 62.6331 435.897 61.4566 436.537 60.0865C436.92 59.2175 437.001 58.2453 436.768 57.3249C436.591 56.7029 436.216 56.1556 435.699 55.7665C435.246 55.3985 434.711 55.1449 434.139 55.0271L434.112 55.0416ZM433.674 46.0764C436.762 45.9478 439.804 46.8637 442.307 48.6763C444.63 50.5088 446.307 53.0342 447.095 55.8854C447.649 57.73 447.77 59.6774 447.45 61.5765C447.009 63.8223 445.993 65.9157 444.503 67.6526C442.424 70.095 439.996 72.2177 437.297 73.952C433.396 76.4874 429.265 78.6503 424.958 80.4124C425.562 81.6834 426.566 82.7212 427.817 83.3666C429.263 84.1149 430.876 84.4838 432.504 84.4389C434.52 84.4266 436.524 84.1319 438.457 83.5634C440.481 82.9832 442.452 82.2335 444.35 81.3221C446.238 80.4124 448.056 79.4274 449.792 78.3671C451.528 77.3068 453.088 76.3012 454.466 75.347C455.843 74.3928 456.975 73.5695 457.882 72.878C458.468 72.4006 459.085 71.9621 459.728 71.5652C459.981 71.3366 460.294 71.1846 460.63 71.1271C460.908 71.0883 461.188 71.0677 461.468 71.0655C461.948 71.0592 462.421 71.1819 462.838 71.4206C463.242 71.6556 463.615 71.9393 463.95 72.2653C464.264 72.5719 464.531 72.9231 464.742 73.3076C464.908 73.6078 465.045 73.923 465.152 74.249C465.285 74.707 465.387 75.1737 465.456 75.6457C465.516 76.2876 465.381 76.9327 465.069 77.4967C464.575 78.109 464.048 78.6935 463.49 79.2477C462.577 80.2022 461.372 81.3287 459.875 82.6272C458.165 84.0924 456.381 85.4689 454.53 86.7513C452.387 88.251 450.133 89.5872 447.789 90.7486C445.279 91.9924 442.659 93.0017 439.963 93.7636C437.165 94.5665 434.269 94.9718 431.358 94.9677C428.886 94.9791 426.439 94.4702 424.176 93.4743C421.902 92.4705 419.801 91.113 417.952 89.4522C416.05 87.742 414.397 85.7729 413.044 83.6028C411.671 81.4408 410.595 79.1044 409.844 76.6564C409.259 74.6676 408.988 72.5995 409.043 70.5272C409.084 68.2488 409.435 65.9865 410.088 63.8032C410.775 61.4861 411.766 59.2702 413.035 57.2136C415.728 52.7616 419.859 49.3611 424.746 47.574C427.606 46.5356 430.631 46.027 433.673 46.0729" fill="#898989" fill-opacity="0.93"/>
<path d="M330.766 63.5166C331.323 63.9812 331.77 64.5648 332.073 65.2245C332.376 65.8842 332.528 66.6033 332.517 67.3292C332.493 68.2905 332.263 69.2354 331.842 70.1002C330.644 72.5427 328.003 74.5863 325.831 76.2285C323.423 77.8517 320.583 78.7161 317.678 78.7104C315.709 78.7591 313.797 78.0492 312.336 76.7275C311.604 76.0501 311.028 75.2207 310.65 74.2972C310.272 73.3738 310.1 72.3789 310.148 71.3822C310.153 70.0269 310.228 68.6727 310.37 67.3249C310.491 66.6005 310.567 65.8694 310.598 65.1358C310.614 64.9212 310.588 64.7055 310.521 64.5011C310.453 64.2968 310.345 64.1079 310.204 63.9454C310.08 63.8186 309.932 63.7184 309.767 63.6507C309.603 63.583 309.427 63.5494 309.25 63.5517C308.199 63.5517 306.772 64.6577 304.97 66.8696C302.861 69.5842 301.053 72.5196 299.578 75.6244C297.762 79.3078 296.297 83.1535 295.2 87.1108C294.371 90.2801 293.434 92.391 292.389 93.4437C291.344 94.4963 289.619 95.0246 287.215 95.0286C285.925 95.093 284.647 94.7466 283.566 94.0392C282.485 93.3319 281.657 92.2999 281.199 91.0919C280.038 88.4675 279.454 84.2359 279.447 78.3971C279.404 70.0653 280.811 61.7894 283.607 53.9403C284.16 52.1786 285.341 50.6815 286.926 49.7333C288.929 48.736 291.157 48.2746 293.392 48.3939C294.466 48.3174 295.543 48.4881 296.54 48.8929C296.852 49.089 297.103 49.3695 297.262 49.7019C297.422 50.0343 297.484 50.4051 297.441 50.7713C297.441 51.8302 296.878 54.207 295.752 57.9018C295.001 60.5262 294.402 62.8368 293.954 64.8337C293.438 67.2526 293.062 69.6994 292.829 72.1618C294.897 67.1527 297.701 62.48 301.148 58.298C303.641 55.2153 306.694 52.6297 310.144 50.6763C312.586 49.2904 315.325 48.5087 318.13 48.3965C319.947 48.2752 321.74 48.8619 323.134 50.0336C323.747 50.6685 324.22 51.4253 324.522 52.2548C324.823 53.0842 324.947 53.9679 324.885 54.8483C324.698 57.2574 324.283 59.6434 323.647 61.9745H324.663C326.296 61.9796 329.601 62.4914 330.766 63.5166Z" fill="#898989" fill-opacity="0.93"/>
<path d="M509.243 63.4508C509.8 63.9163 510.246 64.4999 510.55 65.1594C510.853 65.8189 511.006 66.5376 510.997 67.2634C510.969 68.2245 510.738 69.1689 510.32 70.0344C509.121 72.4769 506.48 74.5256 504.302 76.1628C501.902 77.7888 499.07 78.6608 496.171 78.6668C494.202 78.7153 492.29 78.0054 490.83 76.6839C490.097 76.0065 489.521 75.177 489.143 74.2537C488.764 73.3303 488.592 72.3355 488.639 71.3387C488.644 69.9828 488.721 68.6282 488.869 67.2805C488.984 66.5559 489.058 65.8252 489.09 65.0922C489.106 64.8781 489.079 64.663 489.011 64.4593C488.943 64.2557 488.835 64.0676 488.694 63.9061C488.57 63.7783 488.422 63.677 488.258 63.6084C488.094 63.5398 487.918 63.5054 487.74 63.5073C486.691 63.5073 485.266 64.6133 483.467 66.8252C481.356 69.538 479.547 72.4737 478.075 75.58C476.258 79.2609 474.792 83.105 473.697 87.0612C472.873 90.2311 471.935 92.3441 470.883 93.4001C469.832 94.4562 468.107 94.9842 465.708 94.9842C464.418 95.047 463.141 94.7 462.06 93.9928C460.98 93.2857 460.15 92.2547 459.691 91.0475C458.531 88.4231 457.948 84.1918 457.942 78.3536C457.9 70.0217 459.309 61.7461 462.104 53.8968C462.66 52.1376 463.839 50.6417 465.419 49.6897C467.424 48.6943 469.654 48.2416 471.888 48.3769C472.962 48.3013 474.038 48.4701 475.037 48.8707C475.349 49.0678 475.599 49.3492 475.758 49.6823C475.917 50.0155 475.978 50.3869 475.935 50.7535C475.935 51.8067 475.373 54.1821 474.25 57.8796C473.499 60.5041 472.9 62.8147 472.452 64.8116C471.932 67.2295 471.555 69.6762 471.324 72.1388C473.39 67.1284 476.194 62.4554 479.644 58.275C482.139 55.1973 485.189 52.6139 488.635 50.6585C491.077 49.2694 493.817 48.4888 496.624 48.3829C498.441 48.2583 500.235 48.8437 501.628 50.0158C502.242 50.6506 502.714 51.4073 503.016 52.2369C503.317 53.0664 503.441 53.9501 503.378 54.8304C503.192 57.2394 502.779 59.6254 502.144 61.9566H503.152C504.765 61.9147 508.08 62.4264 509.243 63.4508Z" fill="#898989" fill-opacity="0.93"/>
<path d="M129.349 45.8359C123.184 45.8359 117.27 48.2849 112.91 52.644C108.551 57.0031 106.101 62.9153 106.101 69.0801C106.102 70.5486 106.24 72.0138 106.513 73.4566L109.516 71.4027C114.797 67.7818 123.36 67.7818 128.641 71.4027L131.792 73.561L133.504 74.7351C138.263 77.9948 145.972 77.9948 150.727 74.7351L152.128 73.7758C152.82 70.3974 152.753 66.9073 151.93 63.5582C151.107 60.2092 149.549 57.085 147.37 54.4119C145.191 51.7388 142.445 49.5836 139.33 48.1025C136.215 46.6213 132.81 45.8512 129.36 45.8479L129.349 45.8359Z" fill="#898989" fill-opacity="0.93"/>
<path d="M142.414 83.0442C139.093 83.1009 135.83 82.1688 133.04 80.3664L128.184 77.0391C125.542 75.419 122.502 74.5615 119.402 74.5615C116.302 74.5615 113.263 75.419 110.62 77.0391L107.48 79.188C107.332 79.2891 107.166 79.3602 106.991 79.3971C106.816 79.434 106.635 79.4361 106.459 79.4031C106.283 79.3702 106.115 79.3029 105.965 79.2051C105.815 79.1073 105.686 78.981 105.585 78.8333C105.484 78.6855 105.413 78.5193 105.376 78.3441C105.339 78.169 105.337 77.9882 105.37 77.8122C105.403 77.6362 105.47 77.4685 105.568 77.3185C105.665 77.1685 105.792 77.0392 105.94 76.9381L109.078 74.7892C112.176 72.8606 115.753 71.8384 119.402 71.8384C123.051 71.8384 126.628 72.8606 129.726 74.7892L134.582 78.1165C136.939 79.559 139.649 80.3223 142.413 80.3223C145.177 80.3223 147.888 79.559 150.245 78.1165L152.089 76.856C152.237 76.7548 152.403 76.6837 152.578 76.6468C152.753 76.6099 152.934 76.6079 153.11 76.6408C153.286 76.6738 153.454 76.741 153.604 76.8388C153.754 76.9366 153.883 77.063 153.984 77.2107C154.085 77.3584 154.157 77.5246 154.193 77.6998C154.23 77.875 154.232 78.0557 154.199 78.2317C154.167 78.4077 154.099 78.5755 154.001 78.7255C153.904 78.8754 153.777 79.0047 153.63 79.1058L151.787 80.3672C148.997 82.1695 145.735 83.1013 142.414 83.0442Z" fill="#898989" fill-opacity="0.93"/>
<path d="M119.302 92.8052V79.673C119.291 79.3967 119.303 79.12 119.337 78.8455C119.377 78.4841 119.55 78.1504 119.822 77.9082C120.093 77.666 120.444 77.5323 120.808 77.5327C121.16 77.5423 121.497 77.6815 121.753 77.9237C122.009 78.166 122.167 78.4942 122.196 78.8455C122.252 79.3014 122.268 79.7613 122.244 80.2199V106.407C122.251 106.611 122.218 106.814 122.146 107.005C122.074 107.196 121.965 107.37 121.824 107.518C121.684 107.667 121.516 107.786 121.33 107.868C121.144 107.951 120.943 107.996 120.739 108.001C120.534 107.989 120.334 107.936 120.151 107.845C119.968 107.754 119.805 107.627 119.673 107.471C119.541 107.315 119.442 107.133 119.382 106.937C119.322 106.742 119.302 106.536 119.325 106.333V97.6036L119.302 92.8052Z" fill="#898989" fill-opacity="0.93"/>
<path d="M116.539 86.1952V92.7214C116.539 93.8339 115.94 94.5776 115.099 94.5511C114.88 94.5286 114.667 94.463 114.474 94.358C114.28 94.2531 114.109 94.1109 113.971 93.9396C113.832 93.7684 113.729 93.5715 113.667 93.3602C113.605 93.1489 113.586 92.9274 113.61 92.7086V79.6603C113.61 78.517 114.275 77.7459 115.142 77.7904C116.008 77.8349 116.526 78.5264 116.53 79.668C116.544 81.8443 116.539 84.0197 116.539 86.1952Z" fill="#898989" fill-opacity="0.93"/>
<path d="M125.02 86.1865V81.5986C125.02 80.5349 125.584 79.8477 126.425 79.8477C126.638 79.8576 126.846 79.9103 127.037 80.0025C127.228 80.0948 127.399 80.2247 127.539 80.3846C127.679 80.5444 127.785 80.7308 127.851 80.9327C127.917 81.1346 127.942 81.3476 127.923 81.5592C127.955 84.6823 127.955 87.8037 127.923 90.9233C127.951 91.135 127.933 91.3501 127.871 91.5543C127.808 91.7585 127.703 91.947 127.562 92.1073C127.421 92.2676 127.248 92.396 127.053 92.4839C126.858 92.5718 126.647 92.6171 126.434 92.6169C125.572 92.6084 125.021 91.9554 125.011 90.866V86.1823L125.02 86.1865Z" fill="#898989" fill-opacity="0.93"/>
<path d="M107.918 87.144V82.5561C107.918 81.4932 108.483 80.8052 109.324 80.8052C109.536 80.8151 109.744 80.8677 109.935 80.96C110.127 81.0523 110.297 81.1822 110.437 81.342C110.577 81.5019 110.683 81.6883 110.749 81.8902C110.816 82.092 110.84 82.3052 110.822 82.5168C110.85 85.6398 110.85 88.7611 110.822 91.8808C110.849 92.0924 110.831 92.3074 110.768 92.5113C110.706 92.7153 110.601 92.9037 110.46 93.0639C110.319 93.2241 110.145 93.3525 109.951 93.4405C109.757 93.5285 109.546 93.5742 109.332 93.5744C108.477 93.5658 107.918 92.9129 107.909 91.8235V87.1397L107.918 87.144Z" fill="#898989" fill-opacity="0.93"/>
<path d="M132.145 83.2358C132.527 83.2361 132.893 83.388 133.163 83.6583C133.434 83.9285 133.585 84.2949 133.585 84.677V87.1716C133.585 87.5536 133.434 87.92 133.163 88.1901C132.893 88.4602 132.527 88.612 132.145 88.612C131.763 88.612 131.396 88.4602 131.126 88.1901C130.856 87.92 130.704 87.5537 130.703 87.1716V84.677C130.703 84.2948 130.855 83.9283 131.126 83.658C131.396 83.3877 131.762 83.2358 132.145 83.2358Z" fill="#898989" fill-opacity="0.93"/>
<path d="M137.854 85.4204C138.236 85.4206 138.602 85.5726 138.873 85.8428C139.143 86.1131 139.294 86.4795 139.294 86.8616V100.855C139.294 101.237 139.143 101.604 138.872 101.874C138.602 102.144 138.236 102.296 137.854 102.296C137.665 102.296 137.477 102.259 137.302 102.186C137.128 102.114 136.969 102.008 136.835 101.874C136.701 101.74 136.595 101.582 136.523 101.407C136.45 101.232 136.413 101.045 136.413 100.855V86.8616C136.413 86.6724 136.45 86.4849 136.523 86.3101C136.595 86.1353 136.701 85.9764 136.835 85.8426C136.969 85.7087 137.128 85.6025 137.302 85.5301C137.477 85.4577 137.665 85.4204 137.854 85.4204Z" fill="#898989" fill-opacity="0.93"/>
<path d="M143.527 85.9629C143.909 85.9629 144.276 86.1146 144.546 86.3847C144.816 86.6548 144.968 87.0211 144.968 87.4032V99.2987C144.968 99.4878 144.931 99.6751 144.858 99.8498C144.786 100.025 144.68 100.183 144.546 100.317C144.412 100.451 144.253 100.557 144.078 100.629C143.903 100.701 143.716 100.738 143.527 100.738C143.338 100.738 143.151 100.701 142.976 100.629C142.801 100.557 142.642 100.45 142.508 100.317C142.375 100.183 142.269 100.024 142.196 99.8498C142.124 99.6751 142.086 99.4878 142.086 99.2987V87.4032C142.086 87.0212 142.238 86.6549 142.508 86.3848C142.779 86.1147 143.145 85.9629 143.527 85.9629Z" fill="#898989" fill-opacity="0.93"/>
<path d="M149.272 84.6069C149.654 84.6069 150.02 84.7587 150.291 85.0288C150.561 85.2989 150.712 85.6652 150.712 86.0472V91.1768C150.712 91.5588 150.561 91.9251 150.291 92.1952C150.02 92.4653 149.654 92.6171 149.272 92.6171C148.89 92.6171 148.524 92.4653 148.253 92.1952C147.983 91.9251 147.831 91.5588 147.831 91.1768V86.0472C147.831 85.6652 147.983 85.2989 148.253 85.0288C148.524 84.7587 148.89 84.6069 149.272 84.6069Z" fill="#898989" fill-opacity="0.93"/>
</svg>
