<svg width="21" height="22" viewBox="0 0 21 22" fill="none" xmlns="http://www.w3.org/2000/svg">
<g clip-path="url(#clip0_463_8657)">
<path d="M10.6153 13.5961C12.0491 13.5961 13.2115 12.4338 13.2115 11C13.2115 9.56618 12.0491 8.40384 10.6153 8.40384C9.1815 8.40384 8.01917 9.56618 8.01917 11C8.01917 12.4338 9.1815 13.5961 10.6153 13.5961Z" stroke="#014520" stroke-width="1.73077" stroke-linecap="round" stroke-linejoin="round"/>
<path d="M17.0191 13.5962C16.904 13.8572 16.8696 14.1467 16.9205 14.4274C16.9714 14.7082 17.1052 14.9672 17.3047 15.1712L17.3566 15.2231C17.5176 15.3838 17.6452 15.5747 17.7323 15.7848C17.8194 15.9949 17.8643 16.2202 17.8643 16.4476C17.8643 16.6751 17.8194 16.9003 17.7323 17.1104C17.6452 17.3205 17.5176 17.5114 17.3566 17.6721C17.1959 17.833 17.005 17.9607 16.7949 18.0478C16.5848 18.1349 16.3596 18.1797 16.1321 18.1797C15.9047 18.1797 15.6795 18.1349 15.4693 18.0478C15.2592 17.9607 15.0683 17.833 14.9076 17.6721L14.8557 17.6202C14.6517 17.4207 14.3927 17.2869 14.112 17.236C13.8312 17.1851 13.5417 17.2194 13.2807 17.3346C13.0247 17.4443 12.8064 17.6265 12.6527 17.8586C12.4989 18.0908 12.4164 18.3629 12.4153 18.6414V18.7885C12.4153 19.2475 12.233 19.6877 11.9084 20.0123C11.5838 20.3369 11.1436 20.5192 10.6845 20.5192C10.2255 20.5192 9.78527 20.3369 9.46069 20.0123C9.13611 19.6877 8.95376 19.2475 8.95376 18.7885V18.7106C8.94706 18.4241 8.85435 18.1463 8.68767 17.9133C8.52099 17.6803 8.28805 17.5028 8.01915 17.4039C7.75813 17.2887 7.46859 17.2543 7.18787 17.3052C6.90714 17.3561 6.6481 17.4899 6.44415 17.6894L6.39222 17.7414C6.23148 17.9023 6.0406 18.0299 5.83049 18.117C5.62037 18.2041 5.39515 18.249 5.1677 18.249C4.94025 18.249 4.71503 18.2041 4.50492 18.117C4.29481 18.0299 4.10393 17.9023 3.94318 17.7414C3.78226 17.5806 3.6546 17.3897 3.5675 17.1796C3.4804 16.9695 3.43557 16.7443 3.43557 16.5168C3.43557 16.2894 3.4804 16.0642 3.5675 15.8541C3.6546 15.6439 3.78226 15.4531 3.94318 15.2923L3.99511 15.2404C4.19461 15.0364 4.32844 14.7774 4.37934 14.4967C4.43024 14.2159 4.39588 13.9264 4.28068 13.6654C4.17099 13.4094 3.98884 13.1911 3.75666 13.0374C3.52449 12.8836 3.25242 12.8011 2.97395 12.8H2.82684C2.36781 12.8 1.92758 12.6177 1.603 12.2931C1.27842 11.9685 1.09607 11.5283 1.09607 11.0692C1.09607 10.6102 1.27842 10.17 1.603 9.8454C1.92758 9.52082 2.36781 9.33847 2.82684 9.33847H2.90472C3.19116 9.33177 3.46896 9.23905 3.702 9.07237C3.93504 8.90569 4.11255 8.67276 4.21145 8.40385C4.32665 8.14284 4.36101 7.8533 4.31011 7.57257C4.25921 7.29185 4.12538 7.0328 3.92588 6.82885L3.87395 6.77693C3.71303 6.61619 3.58537 6.4253 3.49827 6.21519C3.41117 6.00508 3.36634 5.77986 3.36634 5.55241C3.36634 5.32496 3.41117 5.09974 3.49827 4.88963C3.58537 4.67952 3.71303 4.48863 3.87395 4.32789C4.0347 4.16697 4.22558 4.03931 4.43569 3.95221C4.6458 3.86511 4.87102 3.82028 5.09847 3.82028C5.32592 3.82028 5.55114 3.86511 5.76125 3.95221C5.97137 4.03931 6.16225 4.16697 6.32299 4.32789L6.37492 4.37981C6.57887 4.57932 6.83791 4.71315 7.11864 4.76405C7.39936 4.81495 7.6889 4.78059 7.94992 4.66539H8.01915C8.2751 4.55569 8.49339 4.37354 8.64715 4.14137C8.80091 3.90919 8.88342 3.63713 8.88453 3.35866V3.21154C8.88453 2.75251 9.06688 2.31229 9.39146 1.9877C9.71604 1.66312 10.1563 1.48077 10.6153 1.48077C11.0743 1.48077 11.5146 1.66312 11.8391 1.9877C12.1637 2.31229 12.3461 2.75251 12.3461 3.21154V3.28943C12.3472 3.5679 12.4297 3.83996 12.5835 4.07214C12.7372 4.30431 12.9555 4.48646 13.2115 4.59616C13.4725 4.71135 13.762 4.74572 14.0427 4.69482C14.3235 4.64392 14.5825 4.51008 14.7865 4.31058L14.8384 4.25866C14.9991 4.09774 15.19 3.97008 15.4001 3.88298C15.6102 3.79588 15.8354 3.75105 16.0629 3.75105C16.2903 3.75105 16.5156 3.79588 16.7257 3.88298C16.9358 3.97008 17.1267 4.09774 17.2874 4.25866C17.4483 4.4194 17.576 4.61028 17.6631 4.8204C17.7502 5.03051 17.795 5.25573 17.795 5.48318C17.795 5.71063 17.7502 5.93585 17.6631 6.14596C17.576 6.35607 17.4483 6.54696 17.2874 6.7077L17.2355 6.75962C17.036 6.96357 16.9022 7.22261 16.8513 7.50334C16.8004 7.78407 16.8347 8.07361 16.9499 8.33462V8.40385C17.0596 8.65981 17.2418 8.8781 17.4739 9.03185C17.7061 9.18561 17.9782 9.26813 18.2566 9.26924H18.4038C18.8628 9.26924 19.303 9.45158 19.6276 9.77617C19.9522 10.1007 20.1345 10.541 20.1345 11C20.1345 11.459 19.9522 11.8993 19.6276 12.2238C19.303 12.5484 18.8628 12.7308 18.4038 12.7308H18.3259C18.0474 12.7319 17.7753 12.8144 17.5432 12.9682C17.311 13.1219 17.1288 13.3402 17.0191 13.5962V13.5962Z" stroke="#014520" stroke-width="1.73077" stroke-linecap="round" stroke-linejoin="round"/>
</g>
<defs>
<clipPath id="clip0_463_8657">
<rect width="20.7692" height="20.7692" fill="white" transform="translate(0.230713 0.615387)"/>
</clipPath>
</defs>
</svg>
