<svg width="19" height="18" viewBox="0 0 19 18" fill="none" xmlns="http://www.w3.org/2000/svg">
<path d="M8.31266 1.83749C8.83016 1.39499 9.67766 1.39499 10.2027 1.83749L11.3877 2.85749C11.6127 3.05249 12.0327 3.20999 12.3327 3.20999H13.6077C14.4027 3.20999 15.0552 3.86249 15.0552 4.65749V5.93249C15.0552 6.22499 15.2127 6.65249 15.4077 6.87749L16.4277 8.06249C16.8702 8.57999 16.8702 9.42749 16.4277 9.95249L15.4077 11.1375C15.2127 11.3625 15.0552 11.7825 15.0552 12.0825V13.3575C15.0552 14.1525 14.4027 14.805 13.6077 14.805H12.3327C12.0402 14.805 11.6127 14.9625 11.3877 15.1575L10.2027 16.1775C9.68516 16.62 8.83766 16.62 8.31266 16.1775L7.12766 15.1575C6.90266 14.9625 6.48266 14.805 6.18266 14.805H4.88516C4.09016 14.805 3.43766 14.1525 3.43766 13.3575V12.075C3.43766 11.7825 3.28016 11.3625 3.09266 11.1375L2.08016 9.94499C1.64516 9.42749 1.64516 8.58749 2.08016 8.06999L3.09266 6.87749C3.28016 6.65249 3.43766 6.23249 3.43766 5.93999V4.64999C3.43766 3.85499 4.09016 3.20249 4.88516 3.20249H6.18266C6.47516 3.20249 6.90266 3.04499 7.12766 2.84999L8.31266 1.83749Z" fill="#999999" fill-opacity="0.37"/>
<path d="M8.34242 11.3775C8.19242 11.3775 8.04992 11.3175 7.94492 11.2125L6.12992 9.39746C5.91242 9.17996 5.91242 8.81996 6.12992 8.60246C6.34742 8.38496 6.70742 8.38496 6.92492 8.60246L8.34242 10.02L11.5674 6.79496C11.7849 6.57746 12.1449 6.57746 12.3624 6.79496C12.5799 7.01246 12.5799 7.37246 12.3624 7.58996L8.73992 11.2125C8.63492 11.3175 8.49242 11.3775 8.34242 11.3775Z" fill="white"/>
</svg>
