<svg width="19" height="18" viewBox="0 0 19 18" fill="none" xmlns="http://www.w3.org/2000/svg">
<path d="M8.31266 1.8375C8.83016 1.395 9.67766 1.395 10.2027 1.8375L11.3877 2.8575C11.6127 3.0525 12.0327 3.21 12.3327 3.21H13.6077C14.4027 3.21 15.0552 3.8625 15.0552 4.6575V5.9325C15.0552 6.225 15.2127 6.6525 15.4077 6.8775L16.4277 8.0625C16.8702 8.58 16.8702 9.4275 16.4277 9.9525L15.4077 11.1375C15.2127 11.3625 15.0552 11.7825 15.0552 12.0825V13.3575C15.0552 14.1525 14.4027 14.805 13.6077 14.805H12.3327C12.0402 14.805 11.6127 14.9625 11.3877 15.1575L10.2027 16.1775C9.68516 16.62 8.83766 16.62 8.31266 16.1775L7.12766 15.1575C6.90266 14.9625 6.48266 14.805 6.18266 14.805H4.88516C4.09016 14.805 3.43766 14.1525 3.43766 13.3575V12.075C3.43766 11.7825 3.28016 11.3625 3.09266 11.1375L2.08016 9.945C1.64516 9.4275 1.64516 8.5875 2.08016 8.07L3.09266 6.8775C3.28016 6.6525 3.43766 6.2325 3.43766 5.94V4.65C3.43766 3.855 4.09016 3.2025 4.88516 3.2025H6.18266C6.47516 3.2025 6.90266 3.045 7.12766 2.85L8.31266 1.8375Z" fill="#0FB95D"/>
<path d="M8.34242 11.3775C8.19242 11.3775 8.04992 11.3175 7.94492 11.2125L6.12992 9.3975C5.91242 9.18 5.91242 8.82 6.12992 8.6025C6.34742 8.385 6.70742 8.385 6.92492 8.6025L8.34242 10.02L11.5674 6.795C11.7849 6.5775 12.1449 6.5775 12.3624 6.795C12.5799 7.0125 12.5799 7.3725 12.3624 7.59L8.73992 11.2125C8.63492 11.3175 8.49242 11.3775 8.34242 11.3775Z" fill="white"/>
</svg>
